<?xml version="1.0" encoding="UTF-8"?>
<svg version="1.1" viewBox="0 0 1600 1600" width="500" height="500" xmlns="http://www.w3.org/2000/svg">
    <path transform="translate(788,290)"
        d="m0 0h27l30 2 30 5 30 7 33 11 23 10 22 11 24 14 10 5 8 1h15l26-2 17-3 21-8 14-8 10-7 9-5 8 1 7 6 6 12 3 15v30l-4 20-8 21-8 16-10 15-7 8 2 5 10 16 10 18 12 28 8 22 7 26 5 27 5 35 1 16v81l-1 28v13l11 7 13 12 12 16 11 19 6 14 2 4 2-1 6-16 6-11 5-4h11l7 6 1 2v7l-6 16-7 19-9 30-11 50-6 21 8-1 20-3 9 1 10 5 7 7 3 5 1 10-6 16-9 10-13 10-20 13-7 4-12 23-14 26-2 5 10 1 12 6 7 8 1 4v8l-4 10-7 9-8 6-11 3-24 3-4 1-8 16-12 16-12 13-14 12-17 13-9 7h20l27 1 22 3 16 5 10 9 5 6 2 7v11l-3 12-4 6-8 6-19 8-32 8-49 8-63 8-85 7-63 4-41 2h-82l-47-2-88-6-53-4-56-6-48-7-31-6-20-5-16-6-12-7-7-8-1-3v-15l5-12 6-8 7-6 10-4 19-4 7-1h22l14 2 16 4h5l-11-8-16-12-14-11-14-14-13-18-7-13-3-7-7-2-30-5-10-4-7-6-5-9-1-5v-8l4-10 9-8 8-3 5-1-2-6-10-18-6-15-4-12-6-5-18-10-11-8-10-9-6-7-5-12v-10l4-11 9-9 5-3 6-1 24 5 8 1-3-10-11-48-10-38-11-33-1-11 3-6 5-4 10-1 5 2 6 8 4 9 5 10 5-11 8-16 11-17 10-11 5-5 8-7 6-4-2-28-1-26v-42l2-43 4-30 6-29 7-25 10-27 11-24 10-19 10-16-1-4-8-9-8-13-8-16-6-16-4-16-2-15 1-18 3-18 5-12 4-6 5-4 7-1 9 5 11 9 14 8 20 7 26 4 14 1h21l9-2 16-9 14-8 19-10 28-12 33-11 29-7 33-6z"
        fill="#121C35" />
    <path transform="translate(784,315)"
        d="m0 0h34l36 4 26 5 27 8 20 7 23 10 19 10 16 8 21 13 8 2h35l27-3 21-6 24-10 9-5 4 1 1 7v15l-2 14-5 16-5 14-6 9-13 13-12 8-5 1 7 12 6 10 9 16 10 16 14 29 12 36 7 30 3 16 2 17 1 19v96l-1 24-5-4-7-9-12-12-8-7-14-7-15-5-11-2-14-1-16 3-18 6-10 6-4 1v2l-5 3h-2v2l-11 9-9 8-6 9-7 14-6 15-5 22-1 30 2 6 6 21 4 9 10 16v2h2l3 5 9 9 9 8 17 8 12 4-1 2-37 13-9 1-6-16-4-8-4-6-10-11-8-7-10-6-8-3-12-2h-19l-16 4-17 9-10 8-10 10-8 14-4 11-2 9-1 12-1 1h-80l-10-1-2-15-5-15-7-12-12-15-7-6-3-1v-2l-4-1-9-5-13-4h-30l-16 4-14 7-14 12-8 10-6 14-3 12-3 1-15-6-19-7-9-4 1-2 16-8 14-10 8-7 1-2h2l2-4 11-15 6-12 4-11 3-18 1-2v-32l-4-18-6-16-8-14v-2h-2l-6-8-10-10-17-12-10-6-20-7-17-3-14 1-15 3-21 7-14 11-3 1-2 4-12 11-3 1-1-1-1-33v-87l2-32 6-28 8-26 7-19 14-30 8-15 12-20 10-18v-2l-10-7-12-12-9-13-5-11-6-22-1-7v-16l1-11 5 1 10 6 15 7 18 6 18 3 10 1h29l20-1 12-7 13-8 16-8 14-8 23-10 34-12 18-5 26-5 22-3z"
        fill="#FDFDFC" />
    <path transform="translate(784,315)"
        d="m0 0h34l36 4 26 5 27 8 20 7 23 10 19 10 16 8 21 13 8 2h35l27-3 21-6 24-10 9-5 4 1 1 7v15l-2 14-5 16-5 14-6 9-13 13-12 8-5 1 7 12 6 10 9 16 10 16 14 29 12 36 7 30 3 16 2 17 1 19v96l-1 24-5-4-7-9-12-12-8-7-14-7-15-5-11-2-18-1 5-4 10-12 13-20 7-16 5-15 4-20 2-17v-25l-3-25-5-19-9-25-10-18-12-16-23-23-14-11-14-9-19-9-18-6-21-4h-39l-20 4-22 8-16 8-14 8-13 10-18 18-11 14-10 20h-3l-8-16-7-10-11-13-5-5v-2l-3-1v-2l-4-2-8-7-10-7-17-10-17-7-13-4-26-4h-34l-21 4-19 7-19 9-14 10-9 7-14 12-14 14-8 10-10 17-7 15-10 29-3 20-1 12v24l4 27 6 21 8 20 10 16 11 14 3 4 3 2h-9l-20 3-16 5-9 3-14 11-3 1-2 4-12 11-3 1-1-1-1-33v-87l2-32 6-28 8-26 7-19 14-30 8-15 12-20 10-18v-2l-10-7-12-12-9-13-5-11-6-22-1-7v-16l1-11 5 1 10 6 15 7 18 6 18 3 10 1h29l20-1 12-7 13-8 16-8 14-8 23-10 34-12 18-5 26-5 22-3z"
        fill="#5BA4E6" />
    <path transform="translate(415,818)"
        d="m0 0h2l1 4 2 34 3 17 4 17 7 14 10 13 7 7 18 13 11 7 16 8 7 5 26 10 23 7 20 8 24 7 7 3 4 15 5 12 5 9 8 7 8 8 14 8 11 3 13 2h18l16-3 13-7 10-8 7-6 1-2h2l2-5 6-9 5-9 23 2h61l18-2 9 17 9 12 8 7 8 6 20 6 14 2h9l17-3 15-6 11-9 9-8 3-5h2l2-5 5-7 4-12 2-12 1-1 14-2 20-7 33-12 16-5 16-8 27-15 16-12 10-9 9-9 11-18 5-14 4-22 1-11v-26l12 12 6 8 10 18 2 4v3h2l3 15 1 9 4 9 1 5v17l-4 23-6 21-8 16-7 10-10 9-14 8-30 13-27 11-17 6-27 11-30 11-24 9-28 9-26 8-35 13-26 8-32 13-19 8-13 8-7-1-8-4-17-4 1-3 16-8 17-9 15-6 16-6 10-7 4-7-1-6-2-4h-8l-26 8-16 7-16 8-17 8-3 1h-7l-18-8-5-2 3 4v12l2 3v5l-3 2-6 1h-8l-21-5-29-9-35-10-46-15-31-9-28-10-33-13-49-22-25-11-36-14-14-7-10-9-6-9-6-13-5-15-4-19-1-8v-19l2-17 8-26 1-2h2l3-9 7-12 7-9 2-3h2l2-4z"
        fill="#B45F3E" />
    <path transform="translate(1110,1240)"
        d="m0 0h22l27 1 22 3 16 5 10 9 5 6 2 7v11l-3 12-4 6-8 6-19 8-32 8-49 8-63 8-85 7-63 4-41 2h-82l-47-2-88-6-53-4-56-6-48-7-31-6-20-5-16-6-12-7-7-8-1-3v-15l5-12 6-8 7-6 10-4 19-4 7-1h22l14 2 16 4h5l-1-2 4 2 6 5 25 13 26 11 41 14 21 7 28 6 78 11 26 3 14 1h59l31-2 50-6 39-5 33-7 35-12 36-13 19-7 16-8 10-6 12-9z"
        fill="#8397B0" />
    <path transform="translate(636,501)"
        d="m0 0h34l16 4 14 7 14 10 12 11 9 10 9 15 6 13 3 9 1 10v25l-4 19-8 19-10 16-11 12-6 7-16 11-17 6-12 3-7 1h-18l-16-3-17-5-10-4-9-6-11-9v-2h-2l-9-11-10-18-5-11-3-9-2-9v-32l3-16 6-13 10-20h2l2-4 4-5 8-7h2v-2l4-1v-2l3-2h3v-2l16-8 13-5z"
        fill="#121C35" />
    <path transform="translate(931,501)"
        d="m0 0h36l16 5 17 9 12 9 10 9 8 9 4 6 12 24 4 15v30l-4 17-8 15-7 17-9 10-7 8-11 10-10 5-21 7-9 2h-29l-21-5-13-5-8-5-11-9-10-10-10-15-7-15-6-19-1-9v-22l1-12 3-12 8-16 2-5h2l2-5 10-13 5-4 4-4 6-5h3v-2l12-7 12-5z"
        fill="#111C35" />
    <path transform="translate(339,993)"
        d="m0 0 7 1 19 6 25 10 2 1v2l9 3 16 8 20 9 14 5 8 2 26 11 25 13 27 12 16 6v2l12 2v2h6v2l12 2 7 3 34 8 17 6 7 1v2l10 2 9 2 8 3 27 9 16 5 11 2 10 3 28 6 17 3 7 2 18 4 24 8 12 5 35 11 10 4 35 12 6 2 8 2v2l9 2 22 9 11 3v2l17 4 16 6 36 10 5 3 3 4-1 6-4 3-7 2h-20l-26-5-42-11-49-14-21-8-24-8-16-6-38-13-24-7-19-8-16-8-20-7-21 3h-10l-20-4-42-12-24-8-40-11-43-15-7-6-3-6-10-4-28-7-30-12-25-12-17-9-16-8-23-13-21-13-12-9-3-3v-10z"
        fill="#91473D" />
    <path transform="translate(629,854)"
        d="m0 0 5 5 7 8 11 9 16 9 17 8 31 12 22 11 24 8 22 4 17 1h21l17-3 25-9 25-12 32-13 20-10 11-8 12-10 5-6 3 3 6 23 6 14 9 14v2h2l3 5 9 9 9 8 17 8 12 4-1 2-37 13-9 1-6-16-4-8-4-6-10-11-8-7-10-6-8-3-12-2h-19l-16 4-17 9-10 8-10 10-8 14-4 11-2 9-1 12-1 1h-80l-10-1-2-15-5-15-7-12-12-15-7-6-3-1v-2l-4-1-9-5-13-4h-30l-16 4-14 7-14 12-8 10-6 14-3 12-3 1-15-6-19-7-9-4 1-2 16-8 14-10 8-7 1-2h2l2-4 11-15 6-12 4-11 3-18z"
        fill="#ADCAE0" />
    <path transform="translate(1256,993)"
        d="m0 0h8l1 10-6 8-7 7-12 9-19 12-16 9-19 10-39 20-21 10-35 13-25 12-20 8-41 12-72 24-21 6h-9l-24-10v-2h-5v-2h-5l-3-3 45-18 9-4 25-8 42-14h4v-2l16-3 7-3 17-5 20-7h3v-2l21-7h2v-2l21-9 13-6 25-11 24-10 24-11 29-13 26-13z"
        fill="#90473D" />
    <path transform="translate(514,758)"
        d="m0 0h18l15 3 16 6 10 9 6 5 10 13 8 15 4 12 2 12v18l-3 9-14 8-13 5-13 3-20-1-20-4-12-4-16-11-10-9-11-14-7-14-5-17v-6l6-9 15-15 8-5h2v-2l12-5z"
        fill="#5AA3E5" />
    <path transform="translate(1069,758)"
        d="m0 0h14l12 2 15 6 10 6 11 9 7 10 1 2v16l-3 12-4 10-9 12-9 9-21 14-19 7-9 2-16 1-13-1-16-6-11-7-7-8-2-7v-22l4-15 8-16 8-10 16-16 14-6 11-3z"
        fill="#5AA4E5" />
    <path transform="translate(787,632)"
        d="m0 0h26l12 3 9 6 10 9 9 14 5 14v16l-4 10-5 9-4 10-8 11-7 11-12 14-8 5-3 1h-11l-8-4-12-11-8-9-15-25-4-9-2-7v-23l4-13 7-12 8-9 10-7z"
        fill="#141E36" />
    <path transform="translate(1139,795)"
        d="m0 0 2 4v2l4 1 7 14 3 13 1 10v12l-3 17-7 17-9 11-10 8-24 16-10 6-11 5-5 1h-10l-15-6-13-7-6-5-5-5-5-6-6-5-8-14-5-15-5-18v-20h1l1 16 3 9 9 8 14 7 9 3 20 1 13-2 14-4 12-5 20-14 9-9 8-12 5-14z"
        fill="#3A6496" />
    <path transform="translate(487,766)"
        d="m0 0 3 1-10 6-16 16-4 7 1 10 6 18 7 12 13 15 13 10 10 6 18 5 12 2 20 1 19-5 20-10v7l-6 16-7 11-9 10-12 13-9 6-16 8-8 3-7-1-15-6-21-13-21-16-5-4-9-14-6-15-3-15v-24l7-20 9-17 9-10 8-7z"
        fill="#3A6496" />
    <path transform="translate(671,930)"
        d="m0 0h15l12 3 8 5 6 4v2l4 2 2 5h2l8 15 1 3v21l-5 13-7 10h-2l-2 4-7 6-14 7-3 1h-16l-16-5-10-6-8-8v-2h-2l-5-10-3-15v-17h2l2-10 3-7h2l1-4 3-3h2l1-3 5-2 10-6z"
        fill="#EC954C" />
    <path transform="translate(923,930)"
        d="m0 0h9l12 3 10 7 3 1 4 5 4 4v3h2l6 16v17l-4 15-3 8h-2v3l-7 6-5 5-12 6-4 1h-21l-12-4-10-8-8-9-6-12-2-6v-23h2l2-9h2l2-6 12-12 10-7 9-3z"
        fill="#ED954C" />
    <path transform="translate(517,1070)"
        d="m0 0 5 1 19 8 18 6 6 1v2h6v2l12 2 7 3 34 8 17 6 7 1v2l10 2 9 2 8 3 27 9 16 5 11 2 10 3 28 6 17 3 7 2 18 4 24 8 12 5 35 11 10 4 35 12 6 2 8 2v2l9 2 22 9 11 3v2l11 3 11 5-3 2-10 2-3 2-9-1-49-16-36-12-53-18-33-11-41-9-17-5-35-8-41-13-31-9-25-9-36-10-29-10-2-7h-2v-2l-5-2-12-6v-2l-4-1-1-2-9-5z"
        fill="#E59866" />
    <path transform="translate(445,1115)"
        d="m0 0h35l16 2 15 4 19 3 2 2 3 7 16 8 14 9 15 11 17 10 17 11 5 5-20 8-9 3h-10l-21-11-19-12-16-10-6-5 1-7 2-4h-54l-25-3-49-7-5-3 1-8 3-6 13-4 21-2z"
        fill="#6E3A45" />
    <path transform="translate(1112,1116)"
        d="m0 0h40l38 1 14 1 4 2 2 9v6l-5 2-32 5-33 5-18 2-16 1h-18l-1 6-6 8-5 4-20 12-21 12-12 7-9 1-28-14v-2l14-8 11-7 17-10 15-11 16-11 13-8 18-8 14-4z"
        fill="#834344" />
    <path transform="translate(1251,994)"
        d="m0 0h12v9l-13 5-11 6-3 2h-3v2l-11 6-10 5-6 2-5-1-3 3-10 5-17 10-16 8-26 12-11 4-14 6-7 4-11 3-8-1-1 2-15 3-5 2-6 4-8 6-12 5-24 8-22 7-37 13-59 19h-10v-2h-5v-2h-5l-3-3 45-18 9-4 25-8 42-14h4v-2l16-3 7-3 17-5 20-7h3v-2l21-7h2v-2l21-9 13-6 25-11 24-10 24-11 29-13 26-13z"
        fill="#DD854E" />
    <path transform="translate(681,1140)"
        d="m0 0h8l25 8 39 9 21 6 33 7 36 12 56 19 36 12 46 15h6l5-3 8-1 1-1-9-4 3-1 19 7 36 10 5 3 3 4-1 6-4 3-7 2h-20l-26-5-42-11-49-14-21-8-24-8-16-6-38-13-24-7-19-8-16-8-20-7-21 3h-10l-20-4-7-2 4-3v-5l-2-3 6-2z"
        fill="#854443" />
    <path transform="translate(692,1242)"
        d="m0 0h5l10 7 21 9 58 20 12 6 3 4h2l6-7 10-4 46-16 27-11 9-5 1-1 9 1 24 7 9 3-1 3-45 22-16 5-21 4-26 3h-67l-26-2-20-4-13-5-40-20-6-4v-2l22-9z"
        fill="#6E3A46" />
    <path transform="translate(429,898)"
        d="m0 0 4 4 7 10 9 10 17 13 14 9 16 8 7 5 26 10 23 7 20 8 24 7 7 3 4 15 5 12 1 5-2-1h-15l-16-3-12-3-17-7-32-16-16-7-15-8-41-18-16-10-4-4v-6l5-10 5-5-1-11-7-15z"
        fill="#FEE6B1" />
    <path transform="translate(1176,886)"
        d="m0 0 1 3-7 18-3 13 3 6 1 7v11l-7 10-13 8-12 6-29 13-32 15-35 14-19 7-16 3-17 1 2-5 5-14 2-12 1-1 14-2 20-7 33-12 16-5 16-8 27-15 16-12 10-9 9-9 11-18z"
        fill="#FEE6B1" />
    <path transform="translate(716,1181)"
        d="m0 0 12 2 8 2v2l11 2 7 1 7 3 4 1v2l-20 7-23 9-30 11-31 9-52 13-26 4-22 3h-7l-5-2-2-2 1-6 4-6 14-6 18-6 27-8 15-5 19-8 15-4 33-11 7-2 8-3z"
        fill="#844343" />
    <path transform="translate(389,856)"
        d="m0 0 1 3-3 10v14l4 17 5 13 9 16 3 3 2 5 9 9 7 9 9 14 8 10 8 8 8 6 8 7 2 7-1 3-5 2 15 7 16 8-3 1-19-9-33-13-24-10-10-7-7-7-9-17-6-18-4-19-1-8v-19l2-17 8-26z"
        fill="#844343" />
    <path transform="translate(1214,864)"
        d="m0 0 2 3 3 21 4 9 1 5v17l-4 23-6 21-8 16-7 10-10 9-14 8-30 13-27 11-9 3-3-1 16-6 12-5 4-2-1-11v-3l6-11 8-9 8-7 16-16 7-10 12-13 11-18 4-11 5-14 1-5v-17z"
        fill="#844343" />
    <path transform="translate(1183,819)"
        d="m0 0 12 12 6 8 10 18 4 11 1 6v17l-3 11-5 12-8 15-11 13-9 7-16 8-19 10-19 8-3-1 20-9 12-6 10-7 5-9v-10l-2-10-2-4 4-15 6-15 1-7 4-19 2-18z"
        fill="#F7A657" />
    <path transform="translate(415,818)"
        d="m0 0h2l1 4 2 34 3 17 4 17 3 8 2 6 5 11 1 12-4 4h-2l-1 4-3 7v5l9 7 6 4-2 1-16-9-10-9-7-7-7-10-8-15-6-21-1-5v-14l5-15 8-16 9-12 2-3h2l2-4z"
        fill="#F6A557" />
    <path transform="translate(467,359)"
        d="m0 0 5 1 1 2-5-1 1 28 3 11 7 10 8 10 11 8v2l4 2 7 6 9 11-2 5-9 14-10 19-10 16-12 24-11 26-10 31-6 26-2 15v31l4 13 9 21 9 17 12 20 4 6v2l9-1 15-5 15-2 2-2 4 3 3 2h-9l-20 3-16 5-9 3-14 11-3 1-2 4-12 11-3 1-1-1-1-33v-87l2-32 6-28 8-26 7-19 14-30 8-15 12-20 10-18v-2l-10-7-12-12-9-13-5-11-6-22-1-7v-16z"
        fill="#3A6496" />
    <path transform="translate(1256,993)"
        d="m0 0h8l1 10-6 8-7 7-12 9-19 12-16 9-19 10-39 20-21 10-35 13-25 12-20 8-7 2h-4l2-5 8-7 5-4 9-6 8-2 7-3 9-3 4-2 7-2 10-3 7-4h2l2-4 4-4h2v-2l27-12 14-7h2l1-3 17-9 7-5 9-4h2l1-3h5 2l8-3 14-8h3v-2l22-11 8-2v-9h-7z"
        fill="#844343" />
    <path transform="translate(645,530)"
        d="m0 0h14l12 5 8 7 5 9 1 4v10l-4 9-6 8-11 6-6 1h-14l-10-4-7-8-6-12v-10l3-10 8-10 4-3z" fill="#FCFCFB" />
    <path transform="translate(939,529)"
        d="m0 0h14l10 3 8 7 5 6 4 11v7l-5 12-9 10-8 3-13 1-13-4-9-7-5-8-2-5v-12l3-9 9-10z" fill="#FBFBFA" />
    <path transform="translate(797,656)"
        d="m0 0h8l10 5 7 6 1 4h2l4 10v16l-8 14-1 3h-2v3l-5 5-5 6-5 4-5-1-6-7-2-1-1-3-2-1-3-6v-2h-2l-7-16-1-4v-13l1-5h2l2-5 5-6 9-5z"
        fill="#EC944C" />
    <path transform="translate(445,1115)"
        d="m0 0h35l16 2 15 4 12 2 5 2-1 2-9 3v2l-3 1h-7v2h-2v2h-2l1 6-4 3-6 2h-20l-10-2-2-5 2-3 3-1 1-2-7-1h-12l-15 5h-27l-14-1-4-2-1-4 2-9 9-4 12-2z"
        fill="#824244" />
    <path transform="translate(751,1007)" d="m0 0 23 2h61l18-2 9 17 5 7v2l-18 1h-97l-15-2 2-5 7-11z" fill="#FEE5B0" />
    <path transform="translate(791,1208)"
        d="m0 0h6l38 13 20 8 13 4-1 2-23 6-19 3-9 1h-41l-18-3-21-7-1-3 15-6 25-9 15-8z" fill="#6E3A45" />
    <path transform="translate(1129,533)"
        d="m0 0 3 4 9 25 6 21 7 33 3 22 1 19v96l-1 24-5-4-7-9-12-12-8-7-14-7-15-5-11-2-18-1 3-2 16 1 18 4 9 3 9-13 8-13 11-19 10-23 3-9v-24l-6-36-8-32-8-24-3-7z"
        fill="#3A6496" />
    <path transform="translate(1107,1059)"
        d="m0 0 3 1-3 3h-5l-1 4-8 7h-3l-1 2-7 3-3 1-2-1-1 2-17 4-11 3-16 8-6 1v2l-10 3-8 2-9 1-4 2-2 4 7 3v2l-21 7-28 10-62 20h-10v-2h-5v-2h-5l-3-3 45-18 9-4 25-8 42-14h4v-2l16-3 7-3 17-5 20-7h3v-2l21-7h2v-2l12-5 8-2z"
        fill="#E49765" />
    <path transform="translate(629,968)"
        d="m0 0h1v11h5l9 7v2l14 7 11 3h16l15-3 12-5 11-7 1 7-2 9-5 10-3 7-8 7-14 7-3 1h-16l-16-5-10-6-8-8v-2h-2l-5-10-3-15z"
        fill="#E96E38" />
    <path transform="translate(971,966)"
        d="m0 0 2 3v17l-4 15-3 8h-2v3l-7 6-5 5-12 6-4 1h-21l-12-4-10-8-8-9-6-12-2-6 2-8h2l2-4 1 2 4 2 5 5 11 7 14 4h13l12-3 16-8 6-5 1-2h5z"
        fill="#E96E38" />
    <path transform="translate(681,1140)"
        d="m0 0h8l25 8 39 9 21 6 33 7 36 12 56 19 3 4-6 1-3-2-11-1-4-1-16-2-9-1-6-1v2l-11-3-36-12-16-5-15-6-15-8-23-8-21 3h-10l-20-4-7-2 4-3v-5l-2-3 6-2z"
        fill="#864443" />
    <path transform="translate(339,993)"
        d="m0 0 7 1 19 6 25 10 2 2-5-1-25-10-18-5h-4l-1 7 27 13 6 5 18 8 25 10 15 7 15 8 9 4 2 3v5 3l4 3 3 1 5 5 12 6 14 4 21 3 15 2 8 2v2h2l-1 4 3 5 3 2v2l9 1 3 1v3h3l1 2 2-2 5 5 6 2-1-2h6l5 4 3-1 2-1 5 1-2 2 2 2v3l5 1-3 1-25-7-40-14-7-6-3-6-10-4-28-7-30-12-25-12-17-9-16-8-23-13-21-13-12-9-3-3v-10z"
        fill="#8F463D" />
    <path transform="translate(1110,1240)"
        d="m0 0h22l27 1 22 3 16 5 10 9 5 6 2 7v11l-1 5-8-5-18-8-23-8-25-6-25-5-20-2 1-3 10-7z" fill="#FEFDFB" />
    <path transform="translate(340,995)"
        d="m0 0 8 1 19 6 34 14 16 8 20 9 17 6 30 13 29 15v1h-20l-11-2-14-4-8-4-13-5-19-9-10-5-18-7-12-4-15-7-27-14-8-4 1-7z"
        fill="#E59866" />
    <path transform="translate(440,1241)"
        d="m0 0h22l14 2 16 4h5l-1-2 4 2 3 3-1 3-41 8-28 7-23 8-19 10-3 8-2-3v-15l5-12 6-8 7-6 10-4 19-4z"
        fill="#FEFDFA" />
    <path transform="translate(671,930)"
        d="m0 0h15l12 3 8 5 6 7 1 8-4 10-4 3-8 2-23 1-10 2-8-1-6-4-3-4-1-3v-11l3-8 9-6z" fill="#FEE6B1" />
    <path transform="translate(923,930)"
        d="m0 0h9l12 3 10 7 2 4 2 9-3 10-4 6-6 3-12-1-5-1-19-1-9-3-4-5-2-6v-11l11-9 11-4z" fill="#FEE6B1" />
    <path transform="translate(369,1019)"
        d="m0 0 9 3 10 5 20 7 19 8 15 8 14 6 10 4 4 2 18 4 8 1h15l-31-16-26-11 3-1 28 12 25 13 27 12 16 6-3 1-16-6-15-6 8 5v2l4 1v2l5 2 12 6v2h2l2 7 9 2 30 10 7 2-4 1-34-10-26-8-8-2-26-3-17-4-14-6-6-5v-2l-5-1v-2l-3-1-1-5 1-3-1-3-9-3-19-10-28-12-20-8-9-5z"
        fill="#B25E3E" />
    <path transform="translate(458,1171)"
        d="m0 0 31 1 8 7 8 9 14 10 13 8 12 6v4l-8 4-12 4h-8l-14-8-14-10-9-8-16-16-6-9z" fill="#6E3A46" />
    <path transform="translate(1133,1171)"
        d="m0 0h13l-6 8-9 10-9 9-22 18-11 6-10 1-16-6-4-2v-2l6-4 14-10 22-18 11-8 5-1z" fill="#6E3A46" />
    <path transform="translate(727,1074)"
        d="m0 0 8 1 17 6 19 9-2 1 3 4v12l2 3v5l-3 2-6 1h-8l-21-5-20-6 3-2-4-6v-8l7-11 3-1z" fill="#6E3A45" />
    <path transform="translate(716,1181)"
        d="m0 0 12 2 8 2v2l11 2 7 1 7 3 4 1v2l-9 1-1-4-11-2-11 1-17 7-46 13-17 4-1-3-5 1-1-1h-9l-2-4 11-5 37-13 10-3 7-2 8-3z"
        fill="#E59866" />
    <path transform="translate(405,840)"
        d="m0 0 5 2 4 13 1 11 3 7 1 9 2 3 2 18 1 3-2 7-3-1v-2l-5 4-1-2-4-1-1-5h-3l-1-2-6-3v-4l-3-1-1-5v-17l6-21 4-12z"
        fill="#E69966" />
    <path transform="translate(846,1197)"
        d="m0 0 10 2h8l17 2 3 1 9 1 5 2 3-1-1-2 11 3 36 12 3 2-4 2v7l2 1v2h-11l-28-8-21-8-24-8-16-6z" fill="#8E463D" />
    <path transform="translate(797,656)" d="m0 0h8l10 5 3 3 1 4v12l-5 9-8 5h-9l-6-3-7-8-3-8 1-4-5 2 2-5 5-6 9-5z"
        fill="#FEE5B0" />
    <path transform="translate(339,993)"
        d="m0 0 7 1 19 6 25 10 2 2-5-1-25-10-18-5h-4l-1 7 27 13 6 5 18 8 12 5-1 4 1 2 3-1 2 1 1 7 9 3 9 6 5 5v3l10 3 6 3v2l4 2-5-1-34-17-22-12-25-14-21-14-8-7v-10z"
        fill="#8D453E" />
    <path transform="translate(596,924)" d="m0 0 4 4 6 7 6 3 1 4-5 11-3 12-3 1-15-6-19-7-9-4 1-2 16-8 14-10z"
        fill="#59A0E1" />
    <path transform="translate(830,856)" d="m0 0h8l5 2 7 6 2 4v11l-3 6-8 7-4 2h-9l-7-5-5-8-1-4v-7l6-9 6-4z"
        fill="#3A6395" />
    <path transform="translate(1203,925)"
        d="m0 0 1 3-5 12h-2l-2 4-2 3h-2l-2 4-6 5-7 10-4 8-4 7-4 3-1 3h-2l2 10 8 4h-5v2h2l1 3-1 3-28 12-25 10-9 2 2-2 14-5 12-5 4-2-1-11v-3l6-11 8-9 8-7 16-16 7-10 12-13z"
        fill="#8E463D" />
    <path transform="translate(727,802)" d="m0 0h9l7 3 6 7 1 9-1 7-7 7-7 3h-8l-8-5-5-6-2-5 1-9 7-8z" fill="#406999" />
    <path transform="translate(739,1190)"
        d="m0 0 9 1 7 2 1 4 6-1-3 2-53 20-8 3h-9l1-3 2-1v-3l-9-1v2l-3-1v-2l-6-1 3-2 42-12 14-6z" fill="#91473D" />
    <path transform="translate(765,855)" d="m0 0h10l6 3 6 7 1 2v11l-6 8-6 5-5 2-7-1-6-5-5-10v-8l4-8z" fill="#3C6596" />
    <path transform="translate(867,803)" d="m0 0h10l7 4 4 4 2 4v9l-4 8-9 6h-11l-5-3-6-7-1-2v-10l5-8 5-4z"
        fill="#5BA5E7" />
    <path transform="translate(1133,359)"
        d="m0 0h1l1 7v15l-2 14-5 16-5 14-6 9-13 13-12 8-5 1 7 12 6 10 9 16 4 6-1 2-11-17-8-15-8-12-2-7 5-6v-5l11-9 8-7 13-14 9-13 2-7 1-8z"
        fill="#3A6496" />
    <path transform="translate(1075,1145)"
        d="m0 0 9 1 1 1 18 1 26-2h11v1l-18 2-16 1h-18l-1 6-6 8-5 4-18 11-2-1 3-3h-8l-9 1 1-5 6-5 7-9 2-6-1-3 7-2z"
        fill="#6E3A46" />
    <path transform="translate(1e3 926)" d="m0 0 7 6 9 6 13 6 12 4-1 2-37 13-9 1-6-16-2-6 3-1v2l3-2 6-1v-3l4-4h2l-4-5z"
        fill="#7D94AE" />
    <path transform="translate(549,1144)" d="m0 0 9 1 19 14 13 8 20 12 3 2v3l-6 2-19-7-11-5-16-8-9-6-5-3-1-2 1-9z"
        fill="#8E463D" />
    <path transform="translate(780,679)"
        d="m0 0h3l3 5 2 5 5 4 7 3h14l4-2 1 2v7l-4 9-1 2h-2l-2 4-6 5-7-1-8-9v-2l-3-1-4-7-2-18z" fill="#EB6F38" />
    <path transform="translate(796,802)" d="m0 0h10l6 4 6 7 1 9-5 8-9 4-9-1-6-4-3-5v-14l4-5z" fill="#5EA6E6" />
    <path transform="translate(471,1116)"
        d="m0 0h19l21 5 12 2 5 2-1 2-9 3v2l-3 1h-7v2h-2v2h-2l1 6-4 3-6 2h-20l-10-2-2-5 2-3 3-1 1-4h19v-2l17-2 15-4-23-5-10-2-16-1z"
        fill="#844343" />
    <path transform="translate(470,1116)" d="m0 0 17 1 33 7 1 2-22 5-11 1h-14l-17-2-4-4-1-6 1-2 3-1z" fill="#B6613F" />
    <path transform="translate(975,1037)"
        d="m0 0v3l-4 5 6-4h2v9l-4 3-23 9-15 3h-16l-11-2-12-4-10-6-3-4 11 3 17 4 8 1h9l17-3 15-6 11-9z" fill="#703B44" />
    <path transform="translate(1114,1117)" d="m0 0h33l6 1-2 5-4 4-12 4-8 1h-21l-7-3-4-3v-2l-3-1 3-2 12-3z"
        fill="#B5603E" />
    <path transform="translate(727,1074)"
        d="m0 0 8 1 17 6 2 2-12-1-5 4-3 6v9l3 1 2 5h2l1 6-10-1-16-5 3-2-4-6v-8l7-11 3-1z" fill="#90463D" />
    <path transform="translate(992,1218)"
        d="m0 0 6 1 16 6 36 10 3 1 1 7-4 4-4 2h-5l-2-2v-5l-9-3-1-1-33-4-15-4v-1l8-2 3-2 8-1 1-1-9-4z" fill="#8E463D" />
    <path transform="translate(495,1090)"
        d="m0 0 31 2 12 3v2h2l-1 4 3 5 3 2v2l9 1 3 1v3h3l1 2 2-2 5 5 6 2-1-2h6l5 4 3-1 2-1 5 1-2 2 2 2v3l5 1-3 1-25-7-40-14-7-6-3-6-10-4-16-4z"
        fill="#834344" />
    <path transform="translate(902,1244)" d="m0 0 9 1 24 7 9 3-1 3-29 14-10 3-4 1 3-3 2-5 6-6v-6l-1-2h-9l-5-2 2-5z"
        fill="#824244" />
    <path transform="translate(730,1137)"
        d="m0 0 9 1 28 6 17 3 7 2 18 4 24 8 12 5 35 11 10 4 32 11 1 2-11-2-1-2h-5l-7-2-9-3-13-4-6-2-13-5-7-3-2-1h-6v-2l-12-2-8-4-20-5-9-2-2-1h-7l-12-3-10-3-5-2v-2l-13-2-15-4z"
        fill="#F3A65C" />
    <path transform="translate(442,1241)" d="m0 0h20l14 2 16 4h5l-1-2 4 2 3 3-1 3-41 8h-2l1-3-6-8-3-3-9-4z"
        fill="#FDE6B3" />
    <path transform="translate(681,1140)" d="m0 0h8l18 6-1 2 15 6 1 2-1 2-5 2-6 1h-10l-20-4-7-2 4-3v-5l-2-3 6-2z"
        fill="#854443" />
    <path transform="translate(1110,1240)" d="m0 0h22l22 1-2 2-13 4-3 1-2 7 3 4-11-2-21-3-11-1 1-3 10-7z"
        fill="#FDE6B3" />
    <path transform="translate(648,1202)" d="m0 0 3 1-15 6 1 3h10l5 1 3 4-29 8-12 2h-9l-3-1-11-1 2-2 9-2v-2l24-8 19-8z"
        fill="#AF5D3E" />
    <path transform="translate(633,1044)" d="m0 0 5 2 12 6 14 3 7 1h18l16-2-5 4-8 6-8 3h-13l-9-1-9-4-15-10-5-7z"
        fill="#834343" />
    <path transform="translate(990,1020)"
        d="m0 0h17l-4 2-5 4-3 9h-2v2l-2 1-6 12-6 4-21 8-11 2 2-2 28-11 1-3 1-7-6 4h-2l2-4 9-10 3-5h2l2-5z"
        fill="#E3894F" />
    <path transform="translate(1161,1052)"
        d="m0 0 3 1-22 11-28 12-21 10-31 11-33 11-3-1 16-6 6-5 9-6 5-2 15-3 4-1 8-1 10-3 12-6 11-5 14-5z"
        fill="#B5603E" />
    <path transform="translate(1214,864)"
        d="m0 0 2 3 3 21 4 9 1 5v17l-4 23-6 21-2 2 1-7 4-16 1-10 1-4v-7h-2l-5-9v-10l3-11v-17z" fill="#723C45" />
    <path transform="translate(730,807)"
        d="m0 0h4v2l6 2 4 6-1 7h-2l-1 3h-4l-1 3-5 1v-2l-4-1-2-2-4-2h-2l-1-8 3 1-1-4 1-2h4v-2z" fill="#5AA3E4" />
    <path transform="translate(955,983)" d="m0 0 2 1-1 5-4 4-12 5-9 2h-13l-14-4-2-1 1-4 5-1 12 3h6l5-4 11-2z"
        fill="#F7A556" />
    <path transform="translate(339,993)"
        d="m0 0 7 1 19 6 25 10 2 2-5-1-25-10-18-5h-4l-1 7 27 13 4 4 1 3-1 1h-6v-2h-5v3l-5-2-14-10-4-4v-10z"
        fill="#8A4742" />
    <path transform="translate(1034,1156)"
        d="m0 0 2 1-5 9-3 5h-2v2l-6 1-6 3-4 1-1 2-6 1v2l-4 2-4 4-6-1-3-2v-2l14-8 11-7 15-9 7-3z" fill="#8E463E" />
    <path transform="translate(641,947)" d="m0 0h1v12l3 2 3 9v3h2l2 5-3 2-10-1-9-6 1-8 3-11 2-3h2v-2z" fill="#F7A656" />
    <path transform="translate(549,1144)" d="m0 0 9 1 6 4-3 2 5 4 3 9v3l4 2 8 5-3 1-19-10-7-5-5-3-1-2 1-9z"
        fill="#844344" />
    <path transform="translate(450,987)"
        d="m0 0 7 4 7 7 3 2 2 7-1 3-5 2 15 7 16 8-3 1-19-9-25-10v-2h-2v-2l-3-1 8-1 5 1-3-5 1-5-3-5z" fill="#8C453E" />
    <path transform="translate(400,1035)"
        d="m0 0 2 1-1 2 1 2 3-1 2 1 1 7 9 3 9 6 5 5v3l10 3 6 3v2l4 2-5-1-34-17-22-12-2-2 5-1 1-4z" fill="#824244" />
    <path transform="translate(867,803)"
        d="m0 0h10l7 4 4 4 2 4v9l-4 8-9 6h-11l-5-3-6-7-1-2v-10l5-8 5-4zm-2 4-5 5v2h-2l-1 2v7l2 6 2 2 3 1v2l4 2 9-1 4-3h3l3-5v-9l-3-6-7-5z"
        fill="#456D9B" />
    <path transform="translate(992,1218)" d="m0 0 6 1 16 6 14 4v2l2 1-13 2h-10l-13-1-13-3v-1l8-2 3-2 8-1 1-1-9-4z"
        fill="#AF5C3E" />
    <path transform="translate(624,1054)" d="m0 0 8 2 27 9 2 2h-5l-1 2-9 2-1 2h-2v-2l-12-3-3-2v-2h-2l-4-8z"
        fill="#91473D" />
    <path transform="translate(703,1147)"
        d="m0 0h8l20 5 6 1 3 3 4 1v2l4 1h8l6 2v2l6 2 3 2-1 2-5 2-14-7-20-7-14 1 4-1v-3l-18-7z" fill="#743D45" />
    <path transform="translate(975,1037)"
        d="m0 0v3l-4 5 6-4h2v9l-4 3-20 8-3-1 3-2h3l-3-3-9 3-5 2-12 1-1-2 11-2h4v-2l12-4 10-5z" fill="#B05D3E" />
    <path transform="translate(795,1169)" d="m0 0h8l29 9 40 14 12 4 4 4-12-2-18-6-21-8-42-14z" fill="#7D4143" />
    <path transform="translate(716,1181)"
        d="m0 0 12 2 8 2v2l11 2 7 1 7 3 4 1v2l-9 1-1-4-11-2-11 1-6 2-11-1-3-3 1-6h-6l4-2z" fill="#D7804C" />
    <path transform="translate(495,1090)" d="m0 0 17 2 13 2 9 3-1 5 2 4 8 6 25 10-3 1-34-12-7-6-3-6-10-4-16-4z"
        fill="#6E3A46" />
    <path transform="translate(736,1078)"
        d="m0 0h8l10 4-3 1-9-1-5 4-3 6v9l3 1 2 5h2l1 6-10-1 3-2-4-6-3-3v-3h-2l-1-6 1-4 7-8z" fill="#844343" />
    <path transform="translate(406,1076)" d="m0 0 5 1 22 10 1 2-1 3-6 3h-7l-6-3-5-5-3-9z" fill="#6E3A46" />
    <path transform="translate(613,1231)"
        d="m0 0 4 1-2 8 15-1-4 2-28 6-37 5h-7l-5-2-2-2 1-3 3 4 7 1 12-2 24-3 13-2-1-3-8-3 1-4h7z" fill="#6E3A46" />
    <path transform="translate(574,1019)"
        d="m0 0 10 1 12 2h15l3 1 6 9 9 9-1 2-5-3v-2l-4-2-12-5-3-1v-2l-11-2-7-1v-2l-6-1-6-2z" fill="#E48C51" />
    <path transform="translate(1256,994)" d="m0 0h7v9l-13 5-11-2-4-4 9-4z" fill="#E59866" />
    <path transform="translate(1147,1117)" d="m0 0h14l13 2-4 2-2 2-16 6-13 3-7 1h-25v-1l20-1 11-2 10-4 4-5 1-2h-6z"
        fill="#90463D" />
    <path transform="translate(840,1165)"
        d="m0 0 12 3 28 9 10 4 32 11 1 2-11-2-1-2h-5l-7-2-9-3-13-4-6-2-13-5-7-3-2-1h-6v-2h-3z" fill="#F4A458" />
    <path transform="translate(779,671)" d="m0 0h3v8h-2l2 15 1 9 4 10 2 4-3-1-2-5h-2l-7-16-1-4v-13l1-5z"
        fill="#EE974D" />
    <path transform="translate(1256,993)"
        d="m0 0h8l1 10-6 8-7 7-12 9-19 12-7 4-2-1 9-6 14-9 3-1 3-9 12-8 8-4 1-1 1-10h-7z" fill="#733C45" />
    <path transform="translate(905,1138)" d="m0 0 6 1 1 4-2 2-3 2-18 6h-10v-1l6-1v-5l6-4 13-3z" fill="#E2894F" />
    <path transform="translate(1112,1116)" d="m0 0h40v1l-38 1-16 3-5 2 7 6 7 3v1l-14-1-11-1-2-3 5-5 14-5z"
        fill="#86433F" />
    <path transform="translate(415,818)" d="m0 0h1l1 21v14l-1-3h-2l-3-6-1-5-3-4-4 1-2 1 2-4 7-10h2l2-4z"
        fill="#FCE1AC" />
    <path transform="translate(597,1220)" d="m0 0h5l-3 2-6 2 14 2h12l-3 2-37 4h-8l-1-2 3-1 1-2z" fill="#8D453E" />
    <path transform="translate(1185,1082)" d="m0 0h5l-4 7-7 8-8-1-10-4 1-2 20-7z" fill="#6E3A46" />
    <path transform="translate(451,1116)" d="m0 0h19v1l-17 1 1 10 10 2 24 2v1h-20l-13-1-9-3-3-5 1-5z" fill="#90463D" />
    <path transform="translate(667,1118)" d="m0 0 8 1 27 9 11 4 1 3h-6l-4-1-9-2-10-5-6-2v-2l-11-3z" fill="#F6A658" />
    <path transform="translate(517,1070)"
        d="m0 0 5 1 16 7 3 3 9 4v2l4 2 2 6-1 4-3-1-2-7h-2v-2l-5-2-12-6v-2l-4-1-1-2-9-5z" fill="#E48A4F" />
    <path transform="translate(782,1177)" d="m0 0h19l4 2 6 2 4 4-1 3-11-2-19-6z" fill="#8C453E" />
    <path transform="translate(851,1007)" d="m0 0 3 1 8 16 2 3-1 4-7-3-4-6-1-6-5-4v-2l-4-1z" fill="#FAF9F6" />
    <path transform="translate(395,1122)" d="m0 0h6l1 8 1 5-2 2h-8l-3-1-1-4 1-7z" fill="#90463D" />
    <path transform="translate(1154,1072)" d="m0 0 3 1-26 13-40 15-25 12-9 4-3-1 15-7 15-8 6-3 10-3 32-12z"
        fill="#6E3A46" />
    <path transform="translate(1192,936)" d="m0 0v3l-10 9-40 20-16 7-3-1 20-9 12-6 10-7 17-8z" fill="#E59661" />
    <path transform="translate(739,1190)" d="m0 0 9 1 7 2 1 4 6-1-3 2-11 4h-5v-2h2l-1-6h-10l-9 3-3-1 11-5z"
        fill="#B05D3E" />
    <path transform="translate(596,924)" d="m0 0 3 4h-5v2l-5 4-1 2h-2l-1 4-9 6-5-1-5 5h-6v-3l16-8 14-10z"
        fill="#50749F" />
    <path transform="translate(754,955)" d="m0 0 3 1 4 9 4 11 4 3 5 1v1h-16l-2-14-2-7z" fill="#F7F9FA" />
    <path transform="translate(1212,1028)" d="m0 0 3 1-49 23-2-1 23-13 5-3 6-3h2l1-3h5 2z" fill="#B5603E" />
    <path transform="translate(816,876)" d="m0 0 2 3 3 6 9 4h8l10-6 2-5 1 4-7 8-7 4h-9l-7-5-5-8z" fill="#1D2B47" />
    <path transform="translate(699,1154)" d="m0 0h9l6 3-4 4h-10l-7-1-4-3 4-2z" fill="#8B453E" />
    <path transform="translate(1207,1015)" d="m0 0 3 1-4 2-1 2h-2v2l-14 7-5 2h-6l-1-2 21-10z" fill="#E69967" />
    <path transform="translate(646,1204)" d="m0 0 7 4 2 4-1 3h-2v-2l-5 1-1-1h-9l-2-4z" fill="#E48A4F" />
    <path transform="translate(645,941)" d="m0 0h3l-1 7v11l3 6 3 4-4-1-4-5v-2l-4-2v-11h-3l4-4h2z" fill="#E48F4C" />
    <path transform="translate(389,856)" d="m0 0 1 3-3 10v14l3 13-1 4-5-5-2-6 1-11 3-14z" fill="#9E513E" />
    <path transform="translate(881,997)" d="m0 0 4 4 4 7 9 10 5 4 8 4-4 1-7-3-12-11-5-7-2-4z" fill="#DF8748" />
    <path transform="translate(632,1266)" d="m0 0h6l13 10v1l-8-1-12-5-3-3z" fill="#743C44" />
    <path transform="translate(969,996)" d="m0 0 1 3-4 10h-2v3l-7 6-5 5-8 4-4-1 5-2v-2l15-10 5-8 2-6h2z"
        fill="#DB8448" />
    <path transform="translate(893,950)" d="m0 0h1l3 11 5 5 7 2 19 1 1 2h-17l-12-2-6-5-2-5v-7z" fill="#DD7641" />
    <path transform="translate(416,818)" d="m0 0 2 4 2 34 3 17 2 11-2-2-4-17-3-26z" fill="#9A5446" />
    <path transform="translate(634 1e3)" d="m0 0 4 2 8 10 9 5v2l5 1 2 3-3 1-11-6-9-9v-2h-2l-3-5z" fill="#D77F47" />
    <path transform="translate(818,665)" d="m0 0 4 2 1 4h2l4 10v13l-2-1-2-11-3-6v-2h-2l-1 4z" fill="#F6A658" />
    <path transform="translate(552,1236)" d="m0 0h7l1 3-4 3-1 5-1 3-4-1-2-2 1-7z" fill="#8B453E" />
    <path transform="translate(422,951)" d="m0 0 4 4 9 14 8 10 7 7h-3l-12-11-9-14-4-8z" fill="#91473D" />
    <path transform="translate(708,940)" d="m0 0 4 2v2l4 2 2 5h2l-5 10-4 1 1-14-3-6z" fill="#DF743F" />
    <path transform="translate(1053,1237)" d="m0 0 5 5-1 6-4 3-7 2h-20l-7-1v-1h20l10-2 4-1 1-8z" fill="#6E3A45" />
    <path transform="translate(581,1175)" d="m0 0h5l3 2 10 3h8l1-2 5 3v3l-6 2-19-7-7-3z" fill="#824244" />
    <path transform="translate(339,993)" d="m0 0 7 1 19 6 25 10 2 2-5-1-25-10-18-5h-4l-2 3v-5z" fill="#904B41" />
    <path transform="translate(731,1186)" d="m0 0 8 1 15 3 7 3 4 1v2l-9 1-1-4-11-2h-7v-2l-4-1z" fill="#D98C60" />
    <path transform="translate(1261 1e3)" d="m0 0 2 1-15 7-29 16-4 1 3-3 12-7h3v-2l22-11z" fill="#B5603E" />
    <path transform="translate(730,1137)" d="m0 0 9 1 28 6 6 2v1l-9-1-31-7z" fill="#FCDEA9" />
    <path transform="translate(737,1154)" d="m0 0 7 1 19 5v1h-15l-4-2v-2l-6-1z" fill="#984E40" />
    <path transform="translate(955,1054)" d="m0 0 3 2v2l-6 2v2l-9 2h-5l4-2 6-1-1-1h-6l2-2 10-3z" fill="#8C4640" />
    <path transform="translate(953,1052)" d="m0 0 3 1-3 3-12 4-12 1-1-2 11-2h4v-2z" fill="#A4563F" />
    <path transform="translate(469,1080)" d="m0 0 4 1 13 5 20 4v1l-15-1-13-4-10-4z" fill="#814141" />
    <path transform="translate(411,1054)" d="m0 0 6 2 20 10 10 4v2l4 2-5-1-34-17z" fill="#713B45" />
    <path transform="translate(1013,1190)" d="m0 0 3 1v5l-2 1 6 2v1h-6l-14-7 3-1 5 1z" fill="#6E3A46" />
    <path transform="translate(579,937)" d="m0 0 3 1-5 4h-2v2l-7 3-2 3h-6v-3l16-8z" fill="#6888AC" />
    <path transform="translate(837,857)" d="m0 0h5l8 7 2 4v6l-3-1-1-6-5-4-1-2-3-1v-2z" fill="#21324E" />
    <path transform="translate(909,1058)" d="m0 0h9l10 1 5 1h8v1l-6 1h-13l-12-2z" fill="#8D463F" />
    <path transform="translate(709,1015)" d="m0 0h4l-2 4-5 4-10 5v-3l6-4z" fill="#DD8349" />
    <path transform="translate(588,1022)" d="m0 0h23l3 1 1 4-7-1-1-1-13-1-6-1z" fill="#E69966" />
    <path transform="translate(902,1056)" d="m0 0h11l8 1h9l13-1-4 2-5 1h-27l-5-2z" fill="#814142" />
    <path transform="translate(702,1054)" d="m0 0 3 1-7 3-4 3h-6l4-1v-2h-18v-1l22-2z" fill="#6E3A45" />
    <path transform="translate(418,943)" d="m0 0 5 2 10 6 10 7-2 1-16-9-7-6z" fill="#E6955F" />
    <path transform="translate(921,1209)" d="m0 0 5 1 18 6-4 2-9-2-3-2-7-2z" fill="#974E40" />
    <path transform="translate(1187,1119)" d="m0 0h20v5l-3 1-3-1v-2h-6l-1-1-7-1z" fill="#8F463D" />
    <path transform="translate(832,1191)" d="m0 0 8 2v2l6 1 1 4-11-3-5-3z" fill="#89443F" />
    <path transform="translate(692,1242)" d="m0 0h5l3 5-4 1h-9v-3z" fill="#814243" />
    <path transform="translate(885,1049)" d="m0 0 11 3 4 2 1 4-7-1-9-7z" fill="#643742" />
    <path transform="translate(776,676)" d="m0 0 1 2 1 17 1 5h-2l-3-9v-13z" fill="#F5A75B" />
    <path transform="translate(964,1056)" d="m0 0h7l-4 3-17 5-3-1z" fill="#E59765" />
    <path transform="translate(900,1202)" d="m0 0 11 3 10 3-3 2-16-4z" fill="#964D40" />
    <path transform="translate(633,1044)" d="m0 0 5 2 2 1 1 5h2v2l4 1 3 3h-3l-9-6-5-7z" fill="#8B453E" />
    <path transform="translate(956,1232)" d="m0 0 7 1 7 4v1h-9v-2l-5-2z" fill="#8D453E" />
    <path transform="translate(1236,1026)" d="m0 0m-1 1m-1 1v3l-20 12-2-1 9-6z" fill="#6E3A46" />
    <path transform="translate(778,700)" d="m0 0 3 1v2h2l4 10 2 4-3-1-2-5h-2l-4-9z" fill="#EF9C54" />
    <path transform="translate(659,1063)" d="m0 0 9 1 6 1h9l7-1-3 2-3 1h-13l-9-1z" fill="#91473D" />
    <path transform="translate(1030,944)" d="m0 0 9 2 6 2-1 2h-2v-2l-11 2-1-4z" fill="#3D6697" />
    <path transform="translate(881,997)" d="m0 0 4 4 4 7v3l-4-2-4-7z" fill="#E69251" />
    <path transform="translate(506,1091)" d="m0 0h9l15 2 4 2h-9l-19-3z" fill="#8A4540" />
    <path transform="translate(1258 1e3)" d="m0 0 3 1-16 9h-3v-2z" fill="#884441" />
    <path transform="translate(954,1016)" d="m0 0m-1 1m-2 1 2 1-3 5-6 3-4-1 5-2v-2z" fill="#E48848" />
    <path transform="translate(731,1186)" d="m0 0 8 1 9 3-4 1h-7v-2l-4-1z" fill="#E89F6D" />
    <path transform="translate(722 1e3)" d="m0 0h2l-1 4-6 9-1-4 3-7z" fill="#DD864A" />
    <path transform="translate(506,1064)" d="m0 0 7 3v1h-17l4-2z" fill="#E48A4F" />
    <path transform="translate(339,993)" d="m0 0 7 1 10 3 1 2-9-2-8-1-2 3v-5z" fill="#974F41" />
    <path transform="translate(893,950)" d="m0 0h1l3 11 2 5-5-4-2-3v-7z" fill="#954E41" />
    <path transform="translate(893,945)" d="m0 0 2 3h-3l-2 5-5 5-2-1 4-6z" fill="#EE9C56" />
    <path transform="translate(796,802)" d="m0 0h10l6 4-1 2-6-3-9-1z" fill="#5C82AC" />
    <path transform="translate(644,955)" d="m0 0h2l3 9 4 5-4-1-5-7z" fill="#BA623F" />
    <path transform="translate(581,1175)" d="m0 0h5l3 2 9 3 1 2-11-3-7-3z" fill="#854444" />
    <path transform="translate(943,1056)" d="m0 0m-4 1h4v2l-10 2-5-1v-1z" fill="#B5603E" />
    <path transform="translate(645,945)" d="m0 0h1v10h-2l-1 4v-11z" fill="#DF6F3C" />
    <path transform="translate(902,1056)" d="m0 0h11l8 1v1l-14 1-5-2z" fill="#7B3F44" />
    <path transform="translate(601,1022)" d="m0 0h10l3 1 1 4-7-1 2-1v-2h-9z" fill="#F09E56" />
    <path transform="translate(921,1209)" d="m0 0 5 1 6 2-4 2-7-2z" fill="#964D41" />
    <path transform="translate(969,996)" d="m0 0 1 3-4 10-3-1 4-10h2z" fill="#D07A47" />
    <path transform="translate(387,1284)" d="m0 0 3 1-1 8-2 1-1-7z" fill="#E0E1D5" />
    <path transform="translate(1172,1031)" d="m0 0 2 1-5 5h-7l1-2z" fill="#E69967" />
    <path transform="translate(877,987)" d="m0 0 1 2h2l2 8-2 3-3-9z" fill="#C87648" />
    <path transform="translate(959,945)" d="m0 0 4 2 3 6-1 3-2-5-3-1z" fill="#F2A760" />
    <path transform="translate(1192,936)" d="m0 0v3l-9 8v-3z" fill="#E5935E" />
    <path transform="translate(791,805)" d="m0 0 2 1-4 7-1 7h-1v-10z" fill="#49709C" />
</svg>