<svg xmlns="http://www.w3.org/2000/svg" viewBox="0 6.75 150.5500030517578 37.599998474121094" data-asc="0.883">
    <g fill="#ffffff">
        <g fill="#ffffff" transform="translate(0, 0)">
            <path
                d="M7.50 44.35Q4.20 44.35 2.10 41.80Q0 39.25 0 34.10Q0 31.25 0.70 28.10Q1.40 24.95 2.65 21.90Q3.90 18.85 5.55 16.25Q8.20 12.05 11.65 9.40Q15.10 6.75 18.90 6.75Q21.90 6.75 23.53 8.27Q25.15 9.80 25.80 12.17Q26.45 14.55 26.45 17.10Q26.45 23.05 24.63 28.17Q22.80 33.30 19.90 36.85Q17 40.50 13.72 42.42Q10.45 44.35 7.50 44.35M10.20 36.10Q12.45 36.10 14.18 34.60Q15.90 33.10 17.10 30.77Q18.30 28.45 18.90 25.90Q19.50 23.35 19.50 21.30Q19.50 20.50 19.35 19.57Q19.20 18.65 18.70 17.95Q18.20 17.25 17.15 17.25Q14.85 17.25 13 18.92Q11.15 20.60 9.90 23.15Q8.65 25.75 8.05 28.25Q7.45 30.75 7.45 32.80Q7.45 33.85 8.20 34.97Q8.95 36.10 10.20 36.10ZM31.65 44.25Q29.65 44.25 27.65 43.17Q25.65 42.10 23.80 39.75L27.50 32.50Q28.05 33.45 29.13 34.30Q30.20 35.15 31.40 35.65Q32.60 36.15 33.45 36.15Q34.75 36.15 35.93 35.35Q37.10 34.55 37.10 33.20Q37.10 31.45 35.50 30Q33.90 28.55 31.90 27.15Q29.95 25.75 28.33 23.97Q26.70 22.20 26.70 19.90Q26.70 17.30 28.20 15.07Q29.70 12.85 32.10 11.17Q34.50 9.50 37.23 8.57Q39.95 7.65 42.40 7.65Q44.15 7.65 45.65 8.22Q47.15 8.80 48.05 10.10Q48.95 11.40 48.95 13.60Q48.95 13.95 48.93 14.30Q48.90 14.65 48.85 15.00Q48.80 15.35 48.73 15.72Q48.65 16.10 48.60 16.50L41.35 18.60Q41.45 18.20 41.53 17.80Q41.60 17.40 41.60 17.00Q41.60 15.50 41.08 14.82Q40.55 14.15 39.70 14.15Q39.25 14.15 38.40 14.62Q37.55 15.10 36.88 15.92Q36.20 16.75 36.20 17.75Q36.20 19.40 37.58 20.47Q38.95 21.55 40.75 22.65Q41.60 23.15 42.65 24.22Q43.70 25.30 44.48 27.12Q45.25 28.95 45.25 31.80Q45.25 35.50 43.43 38.30Q41.60 41.10 38.50 42.67Q35.40 44.25 31.65 44.25ZM53.70 44.25Q50.55 44.25 48.55 41.30Q46.55 38.35 46.55 33.20Q46.55 28.50 47.85 23.92Q49.15 19.35 51.50 15.70Q53.85 12.05 57.08 9.82Q60.30 7.60 64.20 7.60Q66.65 7.60 68.40 9.50Q70.15 11.40 70.15 14.60L70.15 15.20Q70.15 15.40 70.15 15.55Q70.15 15.70 70.10 15.90L63.55 17.65Q62.95 16.40 62.15 16.40Q60.95 16.40 59.63 18.35Q58.30 20.30 57.10 23.00Q56.30 24.80 55.68 26.70Q55.05 28.60 54.70 30.25Q54.35 31.90 54.35 32.95Q54.35 34.50 54.80 35.20Q55.15 35.85 55.90 35.85Q56.65 35.85 57.55 35.13Q58.45 34.40 59.23 33.30Q60 32.20 60.25 31.10L65.95 33.40Q63.50 39 60.13 41.63Q56.75 44.25 53.70 44.25ZM78.25 44.05Q78.35 43.20 78.45 42.40Q78.55 41.60 78.65 40.80L78.95 38Q79.00 37.30 79.05 36.70Q79.10 36.10 79.15 35.60L74.80 35.60L72.80 42.80Q71.70 42.95 70.20 43.13Q68.70 43.30 67.40 43.45Q66.60 43.55 65.83 43.65Q65.05 43.75 64.25 43.85L68.20 30.75Q68.90 28.40 69.80 25.40Q70.70 22.40 71.63 19.25Q72.55 16.10 73.38 13.32Q74.20 10.55 74.70 8.65Q78.10 8.40 81.63 8.05Q85.15 7.70 88.50 7.10Q88.25 9.90 88.03 13.42Q87.80 16.95 87.63 20.70Q87.45 24.45 87.25 28.10Q87.15 31.55 87.00 35.22Q86.85 38.90 86.70 42.75Q85.95 42.85 85.20 42.95Q84.45 43.05 83.70 43.15Q82.45 43.35 80.95 43.60Q79.45 43.85 78.25 44.05M76.00 30.60Q76.30 30.60 77.13 30.55Q77.95 30.50 78.70 30.45Q79.45 30.40 79.60 30.40Q79.60 29.75 79.80 27.75Q80.00 25.75 80.20 23.55Q80.30 22.25 80.43 20.87Q80.55 19.50 80.70 18.05L81.00 13.70L80.25 13.75L79.10 18.05L76.00 30.60ZM87.55 44.25Q88.10 40.30 88.73 36.30Q89.35 32.30 90.03 28.57Q90.70 24.85 91.30 21.85Q91.95 18.60 92.60 15.25Q93.25 11.90 93.95 8.50L102.70 7.35L100.10 18.65Q99.40 21.60 98.68 24.97Q97.95 28.35 97.35 31.50Q96.75 34.65 96.40 37.10Q97.65 37 99.08 36.97Q100.50 36.95 101.60 36.95Q101.65 38.10 101.80 39.38Q101.95 40.65 102.13 41.57Q102.30 42.50 102.30 42.60Q102.10 42.60 101.93 42.60Q101.75 42.60 101.55 42.55L100.75 42.55Q98.80 42.55 96.43 42.73Q94.05 42.90 91.73 43.27Q89.40 43.65 87.55 44.25ZM111.10 44.35Q107.80 44.35 105.70 41.80Q103.60 39.25 103.60 34.10Q103.60 31.25 104.30 28.10Q105.00 24.95 106.25 21.90Q107.50 18.85 109.15 16.25Q111.80 12.05 115.25 9.40Q118.70 6.75 122.50 6.75Q125.50 6.75 127.13 8.27Q128.75 9.80 129.40 12.17Q130.05 14.55 130.05 17.10Q130.05 23.05 128.23 28.17Q126.40 33.30 123.50 36.85Q120.60 40.50 117.33 42.42Q114.05 44.35 111.10 44.35M113.80 36.10Q116.05 36.10 117.78 34.60Q119.50 33.10 120.70 30.77Q121.90 28.45 122.50 25.90Q123.10 23.35 123.10 21.30Q123.10 20.50 122.95 19.57Q122.80 18.65 122.30 17.95Q121.80 17.25 120.75 17.25Q118.45 17.25 116.60 18.92Q114.75 20.60 113.50 23.15Q112.25 25.75 111.65 28.25Q111.05 30.75 111.05 32.80Q111.05 33.85 111.80 34.97Q112.55 36.10 113.80 36.10ZM131.20 44.20Q131.75 41.45 132.33 38.72Q132.90 36 133.40 33.35Q135.30 23.85 136.50 15.15Q135.95 15.05 135.35 15.02Q134.75 15.00 134.20 15.05Q133.00 15.15 131.85 14.75Q131.90 14.35 131.90 13.87Q131.90 13.40 131.90 12.90Q131.90 12.35 131.90 11.82Q131.90 11.30 131.95 10.80Q132.00 10.25 132.00 9.63Q132.00 9 132.05 8.35Q133.35 8.45 134.65 8.50Q135.95 8.55 137.25 8.55Q140.95 8.55 144.33 8.30Q147.70 8.05 150.55 7.70L150.00 10.40L149.55 12.75Q149.30 14.05 149.10 14.80Q148.55 14.95 148.00 15.05Q147.45 15.15 146.90 15.20Q146.35 15.25 145.78 15.35Q145.20 15.45 144.65 15.55Q143.90 19.25 143.43 21.95Q142.95 24.65 142.58 27.12Q142.20 29.60 141.70 32.55Q140.85 37.60 140.20 42.80L131.20 44.20Z" />
        </g>
        <g fill="#ffffff" transform="translate(0, 59.05)">
            <path d="" />
        </g>
    </g>
</svg>